<svg width="402" height="84" viewBox="0 0 402 84" fill="none" xmlns="http://www.w3.org/2000/svg">
<path d="M533.296 -1.48195L-110.549 0.333335L-111 49.1607C-111 49.1607 -107.786 85.0452 -67.4668 83.6511C-27.1473 82.257 -21.175 51.5235 -21.175 51.5235C-21.175 51.5235 -21.036 50.7528 -20.9517 50.7444C-20.8675 50.7359 -20.7875 50.7444 -20.7875 50.7444C-19.0985 59.0458 -11.252 83.7185 22.3119 82.5603C62.6314 81.1662 68.6037 50.4327 68.6037 50.4327C68.6037 50.4327 68.6627 50.3821 68.7175 50.399C68.7722 50.4158 68.7933 50.4411 68.7933 50.4411C69.9389 57.2179 76.762 84.6578 112.116 83.4363C152.435 82.0422 158.408 51.3087 158.408 51.3087C158.408 51.3087 158.547 50.538 158.631 50.5296C158.715 50.5211 158.795 50.5296 158.795 50.5296C159.212 68.2233 178.852 82.2907 201.895 82.3455C226.176 82.4044 246.881 66.8924 245.925 48.2383C245.925 48.2383 246.203 47.8298 246.304 47.8256H246.401C245.899 60.6421 254.235 72.4899 268.112 78.5801C286.914 86.8311 306.153 80.2438 308.735 79.3172C332.877 70.6704 335.842 49.5608 335.952 48.6342C336.103 48.2636 336.171 47.9604 336.205 47.7456C336.23 47.5729 336.276 47.1812 336.276 47.1812C335.746 61.2359 345.963 74.1493 362.2 79.9574C377.303 85.3611 396.08 84.0681 409.612 75.4044C426.842 64.378 425.659 47.7498 425.503 46.0861C425.503 46.0861 425.562 46.0356 425.617 46.0524C425.672 46.0693 425.693 46.0945 425.693 46.0945C427.053 61.0885 438.092 73.9977 454.522 79.2667C456.94 80.0416 473.501 85.1168 490.099 78.7655C506.168 72.6204 512.148 59.6397 513.298 55.1499C513.298 55.1499 513.332 55.0193 515.307 46.9622C515.307 46.9622 515.446 46.1914 515.53 46.183C515.615 46.1746 515.695 46.183 515.695 46.183C515.126 58.0181 522.311 68.535 533.292 75.0422" fill="#D0C0DB"/>
</svg>
