<svg width="1801" height="123" viewBox="0 0 1801 123" fill="none" xmlns="http://www.w3.org/2000/svg">
<path d="M986.254 -12L-28.2899 -9.13955L-29 67.8006C-29 67.8006 -23.9361 124.346 39.5977 122.149C103.132 119.952 112.542 71.5238 112.542 71.5238C112.542 71.5238 112.761 70.3093 112.894 70.296C113.027 70.2827 113.153 70.296 113.153 70.296C115.814 83.3771 128.179 122.255 181.067 120.43C244.601 118.233 254.012 69.8049 254.012 69.8049C254.012 69.8049 254.105 69.7252 254.191 69.7518C254.277 69.7783 254.311 69.8181 254.311 69.8181C256.116 80.4967 266.867 123.735 322.576 121.811C386.11 119.614 395.521 71.1853 395.521 71.1853C395.521 71.1853 395.74 69.9708 395.873 69.9575C396.006 69.9442 396.132 69.9575 396.132 69.9575C396.789 97.8386 427.736 120.005 464.046 120.092C502.307 120.185 534.933 95.7414 533.427 66.3471C533.427 66.3471 533.865 65.7033 534.024 65.6967H534.177C533.387 85.8924 546.521 104.562 568.389 114.158C598.016 127.16 628.333 116.78 632.401 115.32C670.443 101.695 675.115 68.4311 675.288 66.971C675.527 66.3869 675.633 65.9091 675.686 65.5706C675.726 65.2985 675.799 64.6813 675.799 64.6813C674.963 86.8282 691.063 107.177 716.648 116.329C740.448 124.844 770.034 122.806 791.358 109.154C818.509 91.7792 816.644 65.5772 816.399 62.9557C816.399 62.9557 816.492 62.8761 816.578 62.9026C816.664 62.9292 816.698 62.969 816.698 62.969C818.841 86.5959 836.236 106.938 862.126 115.24C865.936 116.461 892.032 124.459 918.187 114.45C943.506 104.767 952.931 84.3129 954.742 77.2381C954.742 77.2381 954.796 77.0323 957.908 64.3362C957.908 64.3362 958.127 63.1216 958.26 63.1084C958.393 63.0951 958.519 63.1084 958.519 63.1084C957.623 81.7577 968.945 98.3297 986.247 108.584" fill="#D0C0DB"/>
<path d="M1830.25 -12L815.71 -9.13955L815 67.8006C815 67.8006 820.064 124.346 883.598 122.149C947.132 119.952 956.542 71.5238 956.542 71.5238C956.542 71.5238 956.761 70.3093 956.894 70.296C957.027 70.2827 957.153 70.296 957.153 70.296C959.814 83.3771 972.179 122.255 1025.07 120.43C1088.6 118.233 1098.01 69.8049 1098.01 69.8049C1098.01 69.8049 1098.1 69.7252 1098.19 69.7518C1098.28 69.7783 1098.31 69.8181 1098.31 69.8181C1100.12 80.4967 1110.87 123.735 1166.58 121.811C1230.11 119.614 1239.52 71.1853 1239.52 71.1853C1239.52 71.1853 1239.74 69.9708 1239.87 69.9575C1240.01 69.9442 1240.13 69.9575 1240.13 69.9575C1240.79 97.8386 1271.74 120.005 1308.05 120.092C1346.31 120.185 1378.93 95.7414 1377.43 66.3471C1377.43 66.3471 1377.86 65.7033 1378.02 65.6967H1378.18C1377.39 85.8924 1390.52 104.562 1412.39 114.158C1442.02 127.16 1472.33 116.78 1476.4 115.32C1514.44 101.695 1519.12 68.4311 1519.29 66.971C1519.53 66.3869 1519.63 65.9091 1519.69 65.5706C1519.73 65.2985 1519.8 64.6813 1519.8 64.6813C1518.96 86.8282 1535.06 107.177 1560.65 116.329C1584.45 124.844 1614.03 122.806 1635.36 109.154C1662.51 91.7792 1660.64 65.5772 1660.4 62.9557C1660.4 62.9557 1660.49 62.8761 1660.58 62.9026C1660.66 62.9292 1660.7 62.969 1660.7 62.969C1662.84 86.5959 1680.24 106.938 1706.13 115.24C1709.94 116.461 1736.03 124.459 1762.19 114.45C1787.51 104.767 1796.93 84.3129 1798.74 77.2381C1798.74 77.2381 1798.8 77.0323 1801.91 64.3362C1801.91 64.3362 1802.13 63.1216 1802.26 63.1084C1802.39 63.0951 1802.52 63.1084 1802.52 63.1084C1801.62 81.7577 1812.95 98.3297 1830.25 108.584" fill="#D0C0DB"/>
</svg>
