<svg width="26" height="19" viewBox="0 0 26 19" fill="none" xmlns="http://www.w3.org/2000/svg">
<g clip-path="url(#clip0_140_532)">
<path d="M12.6039 3.72566e-05C12.3989 0.916687 11.5667 4.01641 7.9845 6.46483C4.76417 8.67203 1.2423 9.05799 0 9.14241C1.38704 9.33539 4.88478 9.96257 8.06893 12.2904C11.3858 14.7147 12.3989 17.5611 12.7125 18.6225C12.9537 17.6094 13.9668 14.1116 18.0677 11.5064C21.0106 9.63692 24.0982 9.14241 25.5335 8.98562C24.1706 8.84088 20.2266 8.29813 16.8012 5.68085C13.9669 3.5219 12.9658 1.08554 12.616 -0.0120239L12.6039 3.72566e-05Z" fill="#F1663B"/>
<path d="M12.6039 3.72566e-05C12.3989 0.916687 11.5667 4.01641 7.9845 6.46483C4.76417 8.67203 1.2423 9.05799 0 9.14241C1.38704 9.33539 4.88478 9.96257 8.06893 12.2904C11.3858 14.7147 12.3989 17.5611 12.7125 18.6225C12.9537 17.6094 13.9668 14.1116 18.0677 11.5064C21.0106 9.63692 24.0982 9.14241 25.5335 8.98562C24.1706 8.84088 20.2266 8.29813 16.8012 5.68085C13.9669 3.5219 12.9658 1.08554 12.616 -0.0120239L12.6039 3.72566e-05Z" fill="#F1663B"/>
<path d="M12.6039 3.72566e-05C12.3989 0.916687 11.5667 4.01641 7.9845 6.46483C4.76417 8.67203 1.2423 9.05799 0 9.14241C1.38704 9.33539 4.88478 9.96257 8.06893 12.2904C11.3858 14.7147 12.3989 17.5611 12.7125 18.6225C12.9537 17.6094 13.9668 14.1116 18.0677 11.5064C21.0106 9.63692 24.0982 9.14241 25.5335 8.98562C24.1706 8.84088 20.2266 8.29813 16.8012 5.68085C13.9669 3.5219 12.9658 1.08554 12.616 -0.0120239L12.6039 3.72566e-05Z" fill="#F1663B"/>
</g>
<defs>
<clipPath id="clip0_140_532">
<rect width="25.5215" height="18.6225" fill="white"/>
</clipPath>
</defs>
</svg>
