<svg width="107" height="52" viewBox="0 0 107 52" fill="none" xmlns="http://www.w3.org/2000/svg">
<g clip-path="url(#clip0_140_12)">
<path d="M19.5417 14.8962C19.9016 14.8962 20.0749 15.0761 20.0749 15.4294V15.9626C20.0749 16.3225 19.8949 16.4958 19.5417 16.4958H12.5101V43.3622C12.5101 43.7221 12.5301 44.0887 12.5701 44.4619C12.6101 44.8418 12.7167 45.1951 12.8967 45.535C13.0766 45.8749 13.3299 46.1415 13.6698 46.3415C14.0097 46.5414 14.4563 46.6414 15.0095 46.6414C15.8026 46.6414 16.5758 46.4148 17.3356 45.9549C18.0887 45.5017 18.6685 45.1151 19.0618 44.7952C19.3417 44.5153 19.615 44.5353 19.8949 44.8552C20.1748 45.0551 20.1948 45.3151 19.9549 45.6283C19.7149 45.9882 19.3417 46.4814 18.8218 47.1146C18.302 47.7478 17.6621 48.3676 16.889 48.9608C16.1159 49.554 15.2228 50.0805 14.2097 50.5404C13.1966 51.0003 12.0702 51.2269 10.8439 51.2269C9.73084 51.2269 8.76442 51.0069 7.95129 50.5737C7.13817 50.1405 6.47167 49.574 5.95847 48.8741C5.43861 48.181 5.05204 47.3879 4.79877 46.4881C4.53884 45.595 4.4122 44.6952 4.4122 43.7754V16.5024H0.533197C0.173289 16.5024 0 16.3225 0 15.9692V15.436C0 15.0761 0.179954 14.9028 0.533197 14.9028C1.88618 14.7029 3.03922 14.4163 3.99231 14.0364C4.9454 13.6632 5.77852 13.1833 6.49167 12.6101C7.20482 12.0369 7.82466 11.3771 8.33786 10.6439C8.85106 9.9108 9.33094 9.06435 9.76416 8.11126C10.0041 7.55807 10.4373 7.27814 11.0772 7.27814C11.4771 7.27814 11.8103 7.4181 12.0902 7.69803C12.3702 7.97796 12.5101 8.31787 12.5101 8.7111V14.9095H19.5417V14.8962Z" fill="#F1673B"/>
<path d="M38.0702 14.2963C40.4896 14.2963 42.6024 14.8229 44.4153 15.8759C46.2215 16.929 47.7344 18.3153 48.9408 20.0482C50.1472 21.7744 51.0536 23.7539 51.6468 25.9733C52.2466 28.1994 52.5399 30.4589 52.5399 32.7649C52.5399 35.071 52.2399 37.3304 51.6468 39.5565C51.0536 41.7826 50.1472 43.7554 48.9408 45.4817C47.7278 47.2079 46.2215 48.6009 44.4153 49.6539C42.6024 50.707 40.4896 51.2335 38.0702 51.2335C36.6773 51.2335 35.4909 51.1336 34.4978 50.9336C33.5048 50.7337 32.5983 50.507 31.7852 50.2471C30.9721 49.9872 30.2256 49.7606 29.5524 49.5606C28.8793 49.3607 28.1595 49.2607 27.4063 49.2607C26.8531 49.2607 26.3999 49.3807 26.0667 49.6206C25.7267 49.8605 25.4601 50.0738 25.2602 50.2738C25.1002 50.5137 24.8603 50.6337 24.547 50.6337C23.9072 50.6337 23.594 50.3138 23.594 49.6806V11.617C23.594 9.07767 22.6809 7.6647 20.8547 7.38477C20.3748 7.30479 20.1415 7.01154 20.1415 6.49167C20.1415 6.01179 20.3814 5.71853 20.8547 5.59856C21.3345 5.51859 21.9677 5.39195 22.7608 5.212C23.554 5.03204 24.3871 4.75878 25.2602 4.37888C26.1333 4.00564 26.9998 3.49244 27.8529 2.85927C28.706 2.2261 29.4525 1.41297 30.0856 0.419892C30.2856 0.139964 30.5188 0 30.7988 0C31.0387 0 31.2387 0.0866444 31.392 0.266598C31.5519 0.446552 31.6319 0.633171 31.6319 0.83312V15.9026C32.545 15.3894 33.5381 14.9895 34.6111 14.7096C35.6842 14.4296 36.8372 14.2897 38.0636 14.2897L38.0702 14.2963ZM39.6765 49.2674C40.3963 49.2674 41.0828 49.1074 41.7626 48.7875C42.4358 48.4676 43.0423 47.9544 43.5822 47.2412C44.1154 46.5281 44.5553 45.595 44.8885 44.4419C45.2217 43.2889 45.395 41.9026 45.395 40.2697C45.395 38.6368 45.2684 36.9172 45.0085 35.0843C44.7485 33.2581 44.382 31.4586 43.9087 29.6924C43.4355 27.9262 42.869 26.2266 42.2092 24.6004C41.556 22.9741 40.8295 21.5411 40.0364 20.3081C39.2433 19.0751 38.3902 18.0954 37.4704 17.3622C36.5573 16.6291 35.6242 16.2625 34.6711 16.2625C33.3981 16.2625 32.385 16.9756 31.6319 18.4086V38.9034C31.6319 39.5365 31.7919 40.4296 32.1118 41.5827C32.4317 42.7357 32.9249 43.8754 33.6047 45.0085C34.2779 46.1415 35.1243 47.1346 36.1374 47.9877C37.1505 48.8408 38.3302 49.2674 39.6765 49.2674Z" fill="#F1673B"/>
<path d="M86.2046 49.2674C86.4778 49.3873 86.6245 49.6073 86.6245 49.9205C86.6245 50.3937 86.3845 50.6337 85.9113 50.6337H72.3281C71.8482 50.6337 71.615 50.3937 71.615 49.9205C71.615 49.6006 71.7549 49.3873 72.0349 49.2674C72.2748 49.1874 72.5614 49.0274 72.8946 48.7875C73.2346 48.5476 73.5678 48.221 73.9077 47.8077C74.2476 47.3879 74.5209 46.8547 74.7408 46.2015C74.9608 45.5483 75.0674 44.7419 75.0674 43.7888V26.4532C75.0674 25.3002 75.0274 24.2405 74.9475 23.2674C74.8675 22.2943 74.6875 21.4478 74.4143 20.7347C74.1343 20.0215 73.7278 19.4617 73.1946 19.0684C72.6614 18.6685 71.9349 18.4753 71.0218 18.4753C70.3086 18.4753 69.6621 18.6419 69.089 18.9818C68.5158 19.3217 67.9959 19.7549 67.5427 20.2948C67.0828 20.828 66.6962 21.3945 66.383 21.9944C66.0631 22.5875 65.8031 23.1674 65.6099 23.7206V43.7355C65.6099 44.6885 65.7165 45.5017 65.9364 46.1748C66.1564 46.848 66.4296 47.3945 66.7696 47.8144C67.1095 48.2343 67.4427 48.5609 67.7826 48.7942C68.1225 49.0341 68.4091 49.1941 68.6491 49.274C68.9223 49.394 69.069 49.6139 69.069 49.9272C69.069 50.1272 68.9956 50.2938 68.8623 50.4337C68.7224 50.5737 68.5558 50.6404 68.3558 50.6404H54.7726C54.2928 50.6404 54.0595 50.4004 54.0595 49.9272C54.0595 49.6073 54.1994 49.394 54.4794 49.274C54.7193 49.1941 55.0059 49.0341 55.3458 48.7942C55.6791 48.5542 56.019 48.2276 56.3589 47.8144C56.6988 47.4012 56.9721 46.8747 57.192 46.2348C57.412 45.6016 57.5186 44.8085 57.5186 43.8488V11.617C57.5186 9.07767 56.6255 7.6647 54.8393 7.38477C54.3261 7.30479 54.0661 7.01154 54.0661 6.49167C54.0661 6.01179 54.3261 5.71853 54.8393 5.59856C55.3192 5.51859 55.939 5.39195 56.7188 5.212C57.4919 5.03204 58.3184 4.75878 59.1915 4.37888C60.0646 4.00564 60.9377 3.49244 61.8108 2.85927C62.6839 2.2261 63.4371 1.41297 64.0769 0.419892C64.2369 0.139964 64.4701 0 64.7901 0C64.99 0 65.1766 0.0866444 65.3566 0.266598C65.5365 0.446552 65.6232 0.633171 65.6232 0.83312V20.6147C66.0964 19.8616 66.6562 19.1084 67.2894 18.3486C67.9226 17.5955 68.6291 16.9223 69.4022 16.3225C70.1753 15.7293 71.0418 15.2428 71.9949 14.8629C72.948 14.4896 73.981 14.2963 75.0941 14.2963C78.0333 14.2963 80.1195 15.2628 81.3525 17.1889C82.5855 19.1151 83.1987 21.7877 83.1987 25.2002V43.7288C83.1987 44.6819 83.3053 45.495 83.5253 46.1682C83.7452 46.8413 84.0185 47.3879 84.3584 47.8077C84.6983 48.2276 85.0315 48.5542 85.3714 48.7875C85.7114 49.0274 85.998 49.1874 86.2379 49.2674H86.2046Z" fill="#F1673B"/>
<path d="M98.5081 37.7503C98.3881 38.4501 97.8816 40.8162 95.7288 42.6957C93.796 44.3819 91.6765 44.6752 90.93 44.7485C91.7631 44.8951 93.8693 45.375 95.7821 47.1546C97.7749 49.0141 98.3881 51.1802 98.5747 52C98.7214 51.2268 99.3279 48.5475 101.801 46.5547C103.573 45.1217 105.426 44.7485 106.293 44.6285C105.473 44.5219 103.1 44.0953 101.041 42.1025C99.3345 40.4496 98.7347 38.5834 98.5214 37.7503H98.5081Z" fill="#F1673B"/>
</g>
<defs>
<clipPath id="clip0_140_12">
<rect width="106.279" height="52" fill="white"/>
</clipPath>
</defs>
</svg>
