<svg width="61" height="44" viewBox="0 0 61 44" fill="none" xmlns="http://www.w3.org/2000/svg">
<path d="M14.7063 13.302C15.515 13.302 16.2225 13.4789 16.8248 13.8285C17.4271 14.1781 17.9325 14.6456 18.3369 15.2226C18.7412 15.7996 19.0402 16.4609 19.2424 17.2021C19.4403 17.9434 19.5414 18.7015 19.5414 19.4681C19.5414 20.2346 19.4403 20.9928 19.2424 21.7383C19.0444 22.4795 18.7412 23.1408 18.3369 23.7136C17.9325 24.2906 17.4271 24.7539 16.8248 25.1077C16.2225 25.4573 15.515 25.6342 14.7063 25.6342C14.243 25.6342 13.8429 25.6005 13.5144 25.5331C13.1816 25.4657 12.8826 25.3899 12.6088 25.3057C12.335 25.2172 12.0866 25.1414 11.8633 25.0782C11.6401 25.0108 11.4 24.9771 11.1473 24.9771C10.962 24.9771 10.8146 25.015 10.7009 25.0951C10.5872 25.1751 10.4987 25.2467 10.4313 25.3141C10.3808 25.3941 10.3008 25.432 10.1955 25.432C9.98066 25.432 9.87536 25.3267 9.87536 25.1119V12.4049C9.87536 11.5541 9.57212 11.0866 8.9614 10.994C8.80136 10.9687 8.72133 10.8676 8.72133 10.6949C8.72133 10.5349 8.80136 10.438 8.9614 10.3959C9.12145 10.3706 9.33205 10.3243 9.59739 10.2653C9.86273 10.2063 10.1407 10.1137 10.4313 9.98734C10.7261 9.86098 11.0125 9.69251 11.2989 9.48192C11.5854 9.27133 11.8339 8.99756 12.0444 8.66483C12.1118 8.57217 12.1919 8.52584 12.2845 8.52584C12.3645 8.52584 12.4319 8.55532 12.4825 8.61429C12.533 8.67325 12.5625 8.74064 12.5625 8.80382V13.8327C12.8657 13.66 13.1985 13.5295 13.5565 13.4368C13.9145 13.3441 14.2978 13.2978 14.7105 13.2978L14.7063 13.302ZM15.2412 24.9771C15.477 24.9771 15.7129 24.9266 15.9361 24.8171C16.1594 24.7076 16.3615 24.5391 16.5426 24.299C16.7195 24.059 16.8669 23.7473 16.9807 23.364C17.0902 22.9807 17.1491 22.5132 17.1491 21.9699C17.1491 21.4266 17.1028 20.8496 17.0186 20.2431C16.9343 19.6324 16.8122 19.0343 16.6522 18.4446C16.4921 17.855 16.3026 17.2864 16.0835 16.7431C15.8645 16.1997 15.6203 15.7238 15.3591 15.311C15.0938 14.9025 14.8116 14.574 14.5041 14.3255C14.2009 14.0812 13.885 13.9591 13.5691 13.9591C13.1437 13.9591 12.8068 14.1991 12.5541 14.6751V21.5192C12.5541 21.7298 12.6046 22.0289 12.7141 22.4164C12.8236 22.8038 12.9879 23.1829 13.2111 23.562C13.4343 23.9368 13.7165 24.2695 14.0577 24.5559C14.3946 24.8381 14.7905 24.9813 15.2412 24.9813V24.9771Z" fill="#554395"/>
<path d="M29.7003 16.364C29.7003 16.8399 29.5908 17.2948 29.3718 17.7244C29.1528 18.154 28.8748 18.5541 28.5378 18.9206C28.2009 19.2828 27.8218 19.6155 27.4049 19.9145C26.9879 20.2136 26.5751 20.4747 26.1708 20.6979C25.7665 20.9212 25.3916 21.1149 25.0463 21.2665C24.7009 21.4182 24.4313 21.5361 24.2334 21.6161C24.5493 22.3321 24.9536 22.926 25.4337 23.3977C25.9181 23.8694 26.4993 24.1011 27.1732 24.1011C27.4512 24.1011 27.7039 24.0632 27.9271 23.9831C28.1504 23.9031 28.3525 23.8105 28.5336 23.7052C28.7105 23.5999 28.8622 23.4904 28.9801 23.3766C29.098 23.2629 29.1907 23.1703 29.2581 23.0902C29.3255 22.9976 29.4055 22.985 29.4981 23.0481C29.5487 23.0734 29.5824 23.1155 29.5866 23.1703C29.595 23.2208 29.5866 23.2714 29.5571 23.3093C29.4645 23.4567 29.3128 23.6588 29.1107 23.9158C28.9043 24.1727 28.6389 24.4338 28.3146 24.6907C27.9903 24.9476 27.607 25.1709 27.1606 25.3562C26.7141 25.5415 26.2172 25.6342 25.6612 25.6342C24.8525 25.6342 24.1449 25.4531 23.5427 25.0951C22.9404 24.7371 22.435 24.2695 22.0306 23.6925C21.6263 23.1155 21.323 22.4543 21.1251 21.7046C20.9271 20.9549 20.826 20.1967 20.826 19.4302C20.826 18.6636 20.9271 17.9097 21.1251 17.1811C21.323 16.4525 21.6263 15.7996 22.0306 15.2226C22.435 14.6456 22.9572 14.1823 23.6016 13.8285C24.246 13.4789 25.0168 13.302 25.9181 13.302C26.2635 13.302 26.651 13.3694 27.0806 13.5C27.5102 13.6348 27.9229 13.8285 28.3146 14.0854C28.7063 14.3423 29.0348 14.6624 29.3002 15.0415C29.5655 15.4163 29.7003 15.8586 29.7003 16.364ZM24.1113 21.296C24.8146 21.018 25.3664 20.6474 25.7707 20.1841C26.175 19.7208 26.4614 19.2112 26.6257 18.6636C26.79 18.1119 26.8531 17.5559 26.8152 16.9916C26.7731 16.4272 26.6594 15.9218 26.4656 15.4711C26.2719 15.0204 26.015 14.6498 25.6991 14.3592C25.3832 14.0644 25.0252 13.9212 24.6251 13.9212C24.4145 13.9212 24.225 13.997 24.0607 14.1486C23.8922 14.3002 23.7575 14.5066 23.6522 14.7635C23.5469 15.0246 23.4626 15.3195 23.4037 15.6606C23.3447 15.9976 23.3152 16.3556 23.3152 16.7262C23.3152 17.4717 23.3784 18.2383 23.5048 19.0343C23.6311 19.8303 23.8333 20.5842 24.1113 21.3002V21.296Z" fill="#554395"/>
<path d="M36.5234 13.5C36.6456 13.5 36.7003 13.5589 36.7003 13.6769V13.858C36.7003 13.9759 36.6413 14.0349 36.5234 14.0349H34.1774V23.0018C34.1774 23.1197 34.1816 23.2461 34.1985 23.3682C34.2111 23.4946 34.249 23.6167 34.308 23.7262C34.367 23.8399 34.4554 23.9284 34.5649 23.9958C34.6744 24.0632 34.8261 24.0969 35.0114 24.0969C35.2767 24.0969 35.5379 24.021 35.7864 23.8694C36.0391 23.7178 36.2328 23.5872 36.3634 23.4819C36.456 23.3893 36.5487 23.3935 36.6414 23.503C36.734 23.5704 36.7424 23.6546 36.6624 23.7599C36.5824 23.8821 36.456 24.0463 36.2833 24.2569C36.1107 24.4675 35.8959 24.6739 35.6389 24.876C35.382 25.074 35.083 25.2509 34.7418 25.4025C34.4049 25.5541 34.03 25.63 33.6173 25.63C33.2466 25.63 32.9223 25.5541 32.6528 25.4109C32.379 25.2635 32.1558 25.0782 31.9873 24.8423C31.8146 24.6107 31.6841 24.3454 31.5998 24.0463C31.5114 23.7473 31.4693 23.4482 31.4693 23.1408V14.0307H30.1762C30.0541 14.0307 29.9993 13.9717 29.9993 13.8538V13.6727C29.9993 13.5547 30.0583 13.4958 30.1762 13.4958C30.6269 13.4284 31.0102 13.3357 31.3303 13.2094C31.6504 13.083 31.9284 12.923 32.1642 12.7334C32.4001 12.5439 32.6064 12.3207 32.7791 12.0764C32.9518 11.8321 33.1119 11.5499 33.2551 11.2298C33.3351 11.0445 33.4783 10.9518 33.6931 10.9518C33.8237 10.9518 33.9374 10.9982 34.03 11.0908C34.1227 11.1835 34.169 11.2972 34.169 11.4278V13.4958H36.515L36.5234 13.5Z" fill="#554395"/>
<path d="M42.6432 13.5C42.7653 13.5 42.8201 13.5589 42.8201 13.6769V13.858C42.8201 13.9759 42.7611 14.0349 42.6432 14.0349H40.2972V23.0018C40.2972 23.1197 40.3014 23.2461 40.3183 23.3682C40.3309 23.4946 40.3688 23.6167 40.4278 23.7262C40.4867 23.8399 40.5752 23.9284 40.6847 23.9958C40.7942 24.0632 40.9458 24.0969 41.1311 24.0969C41.3965 24.0969 41.6576 24.021 41.9061 23.8694C42.1588 23.7178 42.3526 23.5872 42.4831 23.4819C42.5758 23.3893 42.6684 23.3935 42.7611 23.503C42.8538 23.5704 42.8622 23.6546 42.7821 23.7599C42.7021 23.8821 42.5758 24.0463 42.4031 24.2569C42.2304 24.4675 42.0156 24.6739 41.7587 24.876C41.5018 25.074 41.2027 25.2509 40.8616 25.4025C40.5246 25.5541 40.1498 25.63 39.737 25.63C39.3664 25.63 39.0421 25.5541 38.7725 25.4109C38.4988 25.2635 38.2755 25.0782 38.1071 24.8423C37.9344 24.6107 37.8038 24.3454 37.7196 24.0463C37.6311 23.7473 37.589 23.4482 37.589 23.1408V14.0307H36.296C36.1739 14.0307 36.1191 13.9717 36.1191 13.8538V13.6727C36.1191 13.5547 36.1781 13.4958 36.296 13.4958C36.7467 13.4284 37.1299 13.3357 37.45 13.2094C37.7701 13.083 38.0481 12.923 38.284 12.7334C38.5198 12.5439 38.7262 12.3207 38.8989 12.0764C39.0716 11.8321 39.2316 11.5499 39.3748 11.2298C39.4548 11.0445 39.598 10.9518 39.8128 10.9518C39.9434 10.9518 40.0571 10.9982 40.1498 11.0908C40.2424 11.1835 40.2888 11.2972 40.2888 11.4278V13.4958H42.6347L42.6432 13.5Z" fill="#554395"/>
<path d="M51.7154 16.364C51.7154 16.8399 51.6059 17.2948 51.3868 17.7244C51.1678 18.154 50.8899 18.5541 50.5529 18.9206C50.216 19.2828 49.8369 19.6155 49.4199 19.9145C49.003 20.2136 48.5902 20.4747 48.1859 20.6979C47.7816 20.9212 47.4067 21.1149 47.0613 21.2665C46.716 21.4182 46.4464 21.5361 46.2485 21.6161C46.5644 22.3321 46.9687 22.926 47.4488 23.3977C47.9332 23.8694 48.5144 24.1011 49.1883 24.1011C49.4663 24.1011 49.719 24.0632 49.9422 23.9831C50.1654 23.9031 50.3676 23.8105 50.5487 23.7052C50.7256 23.5999 50.8772 23.4904 50.9951 23.3766C51.1131 23.2629 51.2058 23.1703 51.2731 23.0902C51.3405 22.9976 51.4206 22.985 51.5132 23.0481C51.5638 23.0734 51.5974 23.1155 51.6016 23.1703C51.6101 23.2208 51.6016 23.2714 51.5722 23.3093C51.4795 23.4567 51.3279 23.6588 51.1257 23.9158C50.9193 24.1727 50.654 24.4338 50.3297 24.6907C50.0054 24.9476 49.6221 25.1709 49.1756 25.3562C48.7292 25.5415 48.2322 25.6342 47.6762 25.6342C46.8676 25.6342 46.16 25.4531 45.5577 25.0951C44.9554 24.7371 44.45 24.2695 44.0457 23.6925C43.6413 23.1155 43.3423 22.4543 43.1402 21.7046C42.9422 20.9549 42.8411 20.1967 42.8411 19.4302C42.8411 18.6636 42.9422 17.9097 43.1402 17.1811C43.3381 16.4525 43.6413 15.7996 44.0457 15.2226C44.45 14.6456 44.9723 14.1823 45.6167 13.8285C46.2611 13.4789 47.0319 13.302 47.9332 13.302C48.2786 13.302 48.666 13.3694 49.0956 13.5C49.5252 13.6348 49.938 13.8285 50.3297 14.0854C50.7214 14.3423 51.0499 14.6624 51.3152 15.0415C51.5806 15.4163 51.7154 15.8586 51.7154 16.364ZM46.1263 21.296C46.8297 21.018 47.3814 20.6474 47.7858 20.1841C48.1901 19.7208 48.4765 19.2112 48.6408 18.6636C48.805 18.1119 48.8682 17.5559 48.8303 16.9916C48.7882 16.4272 48.6745 15.9218 48.4807 15.4711C48.287 15.0204 48.03 14.6498 47.7142 14.3592C47.3983 14.0644 47.0403 13.9212 46.6402 13.9212C46.4296 13.9212 46.24 13.997 46.0758 14.1486C45.9073 14.3002 45.7725 14.5066 45.6672 14.7635C45.5619 15.0246 45.4777 15.3195 45.4187 15.6606C45.3598 15.9976 45.3303 16.3556 45.3303 16.7262C45.3303 17.4717 45.3935 18.2383 45.5198 19.0343C45.6462 19.8303 45.8483 20.5842 46.1263 21.3002V21.296Z" fill="#554395"/>
<path d="M59.7894 13.441C60.16 13.441 60.4591 13.5842 60.6865 13.8664C60.9097 14.1528 60.9856 14.4729 60.9055 14.8309C60.8676 15.0289 60.7876 15.2058 60.6696 15.349C60.5475 15.4964 60.4086 15.5975 60.2401 15.6648C60.0758 15.7322 59.8989 15.7617 59.7136 15.7533C59.5283 15.7491 59.3472 15.6901 59.1787 15.5848C58.9807 15.4669 58.7617 15.3616 58.5301 15.2774C58.2984 15.1889 58.0625 15.1468 57.8225 15.1468C57.3971 15.1468 57.0686 15.2816 56.8285 15.5553C56.5884 15.8291 56.42 16.1239 56.3104 16.4398C56.163 16.8231 56.0788 17.2611 56.0535 17.7539V23.1239C56.0535 23.444 56.0914 23.7136 56.1715 23.941C56.2515 24.1643 56.3441 24.3496 56.4494 24.4886C56.5547 24.6276 56.6642 24.7371 56.7779 24.8171C56.8917 24.8971 56.9843 24.9476 57.0644 24.9771C57.1697 25.015 57.2244 25.0908 57.2244 25.1961C57.2244 25.2635 57.1991 25.3225 57.1528 25.3646C57.1065 25.4109 57.0517 25.4362 56.9843 25.4362H52.4482C52.2924 25.4362 52.2124 25.3562 52.2124 25.1961C52.2124 25.0908 52.2587 25.0192 52.3514 24.9771C52.4314 24.9519 52.5283 24.8971 52.642 24.8171C52.7557 24.7371 52.8652 24.6276 52.9705 24.4886C53.0758 24.3496 53.1685 24.1727 53.2485 23.9621C53.3285 23.7515 53.3706 23.4862 53.3706 23.1661V16.9621C53.3706 16.1113 53.0632 15.648 52.4524 15.568C52.2966 15.5301 52.2166 15.429 52.2166 15.2689C52.2166 15.0963 52.3008 14.9952 52.4735 14.9699C52.6335 14.9446 52.8399 14.8983 53.0968 14.8393C53.3538 14.7804 53.6317 14.6835 53.9224 14.5529C54.213 14.4224 54.5078 14.2497 54.7984 14.0349C55.089 13.8201 55.3417 13.5505 55.5523 13.2178C55.5902 13.1378 55.6661 13.0956 55.7713 13.0956C55.9567 13.0956 56.0493 13.1883 56.0493 13.3736V15.8417C56.2346 15.509 56.4537 15.1973 56.7064 14.9067C56.9549 14.6161 57.2412 14.3592 57.5613 14.1402C57.8814 13.9212 58.2184 13.7485 58.5764 13.6221C58.9344 13.4958 59.3135 13.4326 59.7094 13.4326H59.7894V13.441Z" fill="#554395"/>
<path d="M25.3158 42.7846C25.4085 42.8225 25.4548 42.8983 25.4548 43.0036C25.4548 43.1637 25.3748 43.2437 25.2148 43.2437H20.6786C20.5186 43.2437 20.4386 43.1637 20.4386 43.0036C20.4386 42.8983 20.4849 42.8267 20.5776 42.7846C20.6576 42.7593 20.7545 42.7046 20.8682 42.6246C20.9777 42.5445 21.0914 42.435 21.2051 42.296C21.3188 42.1571 21.4073 41.9759 21.4831 41.7569C21.5547 41.5379 21.5926 41.2684 21.5926 40.9525V35.1655C21.5926 34.7822 21.58 34.4242 21.5547 34.0999C21.5294 33.7756 21.4662 33.4934 21.3778 33.2533C21.2851 33.0132 21.1504 32.8279 20.9693 32.6974C20.7924 32.5668 20.5481 32.4994 20.2448 32.4994C20.0047 32.4994 19.7899 32.5542 19.5962 32.6679C19.4025 32.7816 19.2298 32.9248 19.0782 33.1059C18.9265 33.2828 18.796 33.4723 18.6907 33.6745C18.5854 33.8724 18.4969 34.0662 18.4337 34.2515V40.9314C18.4337 41.2515 18.4717 41.5211 18.5433 41.7485C18.6191 41.9717 18.7117 42.1571 18.8212 42.296C18.9349 42.435 19.0445 42.5445 19.1582 42.6246C19.2719 42.7046 19.3646 42.7551 19.4446 42.7846C19.5372 42.8225 19.5836 42.8983 19.5836 43.0036C19.5836 43.071 19.5583 43.13 19.512 43.1721C19.4656 43.2184 19.4109 43.2437 19.3435 43.2437H14.8074C14.6516 43.2437 14.5715 43.1637 14.5715 43.0036C14.5715 42.8983 14.6179 42.8267 14.7105 42.7846C14.7906 42.7593 14.8874 42.7046 15.0011 42.6246C15.1149 42.5445 15.2244 42.435 15.3381 42.296C15.4518 42.1571 15.5445 41.9802 15.6161 41.7696C15.6919 41.559 15.7256 41.2936 15.7256 40.9735V30.2124C15.7256 29.3616 15.4265 28.8941 14.8284 28.8014C14.6558 28.7762 14.5715 28.6751 14.5715 28.5024C14.5715 28.3424 14.6558 28.2455 14.8284 28.2034C14.9885 28.1781 15.1949 28.1318 15.4518 28.0728C15.7087 28.0138 15.9867 27.9212 16.2773 27.7948C16.5679 27.6685 16.8628 27.5 17.1534 27.2894C17.444 27.0788 17.6967 26.805 17.9073 26.4723C17.9578 26.3797 18.0378 26.3333 18.1473 26.3333C18.2147 26.3333 18.2737 26.3628 18.3369 26.4218C18.3958 26.4807 18.4253 26.5481 18.4253 26.6113V33.2112C18.5854 32.9627 18.7707 32.71 18.9813 32.4573C19.1919 32.2088 19.4277 31.9813 19.6847 31.7834C19.9458 31.5854 20.2322 31.4212 20.5523 31.2948C20.8724 31.1685 21.2136 31.1053 21.5842 31.1053C22.5655 31.1053 23.2605 31.4254 23.6732 32.0698C24.0818 32.7142 24.2882 33.6071 24.2882 34.7443V40.9272C24.2882 41.2473 24.3261 41.5169 24.3977 41.7443C24.4735 41.9675 24.5661 42.1528 24.6756 42.2918C24.7894 42.4308 24.8989 42.5403 25.0126 42.6204C25.1263 42.7004 25.2189 42.7509 25.299 42.7804L25.3158 42.7846Z" fill="#554395"/>
<path d="M35.6179 42.2287C35.6853 42.2539 35.7274 42.3045 35.7484 42.3803C35.7695 42.4519 35.7569 42.5235 35.719 42.5867C35.5968 42.7467 35.3947 42.9278 35.1125 43.1342C34.8261 43.3406 34.4217 43.4417 33.8911 43.4417C33.6383 43.4417 33.3898 43.408 33.1456 43.3406C32.8971 43.2732 32.6823 43.1637 32.4885 43.0121C32.2948 42.8604 32.1347 42.6583 32 42.4056C31.8652 42.1571 31.7809 41.8412 31.743 41.4705C31.583 41.7106 31.4019 41.9465 31.1955 42.1865C30.9891 42.4224 30.7533 42.6372 30.4921 42.8225C30.2268 43.0078 29.9362 43.1595 29.6245 43.2732C29.3128 43.3869 28.9633 43.4417 28.58 43.4417C28.104 43.4417 27.6913 43.37 27.3501 43.2311C27.0047 43.0921 26.7226 42.9025 26.5036 42.654C26.2846 42.4098 26.1245 42.1191 26.0192 41.7906C25.9139 41.4579 25.8591 41.0999 25.8591 40.7166C25.8591 40.1438 25.9897 39.6426 26.2551 39.2046C26.5204 38.7666 26.8531 38.3664 27.2617 38.0084C27.666 37.6504 28.1082 37.3219 28.5926 37.0229C29.077 36.7238 29.5361 36.4332 29.9741 36.1468C30.4121 35.8604 30.7954 35.5656 31.1197 35.2623C31.444 34.9591 31.6546 34.6179 31.7472 34.2473C31.7472 33.9019 31.7262 33.5692 31.6883 33.2449C31.6462 32.9206 31.5746 32.6258 31.4693 32.3688C31.364 32.1119 31.2208 31.9013 31.0312 31.7455C30.8459 31.5854 30.6059 31.5054 30.3152 31.5054C30.0246 31.5054 29.814 31.5981 29.6498 31.7834C29.4855 31.9687 29.3465 32.1961 29.2328 32.4699C29.1191 32.7437 29.018 33.0427 28.9253 33.367C28.8327 33.6913 28.7232 33.9904 28.5968 34.2641C28.4705 34.5379 28.3104 34.7653 28.1209 34.9507C27.9271 35.136 27.6702 35.2286 27.3543 35.2286C27.0384 35.2286 26.7731 35.136 26.5667 34.9507C26.3603 34.7653 26.2593 34.4537 26.2593 34.0156C26.2593 33.725 26.3603 33.4091 26.5667 33.068C26.7731 32.731 27.0722 32.4152 27.4723 32.1245C27.8724 31.8339 28.3483 31.5896 28.9127 31.4001C29.4771 31.2064 30.1173 31.1137 30.8333 31.1137C31.3513 31.1137 31.8315 31.198 32.2737 31.3706C32.7202 31.5433 33.0992 31.7834 33.4193 32.0951C33.7394 32.4067 33.9879 32.7816 34.1648 33.2196C34.3417 33.6576 34.4344 34.142 34.4344 34.6727V41.2178C34.4344 41.6432 34.4849 41.9465 34.586 42.1318C34.6871 42.3171 34.8261 42.4098 35.0114 42.4098C35.0914 42.4098 35.163 42.3929 35.222 42.3592C35.2809 42.3255 35.3357 42.296 35.3904 42.2666C35.4578 42.1992 35.5379 42.1908 35.6263 42.2287H35.6179ZM29.8898 42.1486C30.0878 42.1486 30.2773 42.1065 30.4584 42.0181C30.6353 41.9338 30.7996 41.8159 30.947 41.6685C31.1997 41.42 31.3935 41.1294 31.5325 40.8051C31.6714 40.4808 31.743 40.1396 31.743 39.7816V35.3087C31.4398 35.7214 31.0986 36.0836 30.728 36.4037C30.3573 36.7238 30.012 37.0566 29.6961 37.4061C29.376 37.7557 29.1107 38.1558 28.8916 38.5981C28.6726 39.0445 28.5631 39.5963 28.5631 40.2575C28.5631 40.7629 28.6684 41.2052 28.8832 41.58C29.0938 41.9591 29.4308 42.1486 29.8983 42.1486H29.8898Z" fill="#554395"/>
<path d="M41.0427 42.7846C41.1353 42.8225 41.1817 42.8983 41.1817 43.0036C41.1817 43.1637 41.1016 43.2437 40.9416 43.2437H36.4055C36.2496 43.2437 36.1696 43.1637 36.1696 43.0036C36.1696 42.8983 36.216 42.8267 36.3086 42.7846C36.3886 42.7593 36.4855 42.7046 36.5992 42.6246C36.7129 42.5445 36.8224 42.435 36.9362 42.296C37.0499 42.1571 37.1426 41.9802 37.2142 41.7696C37.29 41.559 37.3237 41.2936 37.3237 40.9735V30.2124C37.3237 29.3616 37.0246 28.8941 36.4266 28.8014C36.2539 28.7762 36.1696 28.6751 36.1696 28.5024C36.1696 28.355 36.2539 28.2581 36.4266 28.2034C36.5866 28.1781 36.793 28.1318 37.0499 28.0728C37.3068 28.0138 37.589 27.9212 37.8838 27.7948C38.1829 27.6685 38.4735 27.5 38.7599 27.2894C39.0463 27.0788 39.2948 26.805 39.5054 26.4723C39.5728 26.3797 39.6528 26.3333 39.7455 26.3333C39.8128 26.3333 39.8718 26.3628 39.935 26.4218C39.9939 26.4807 40.0234 26.5481 40.0234 26.6113V40.9272C40.0234 41.2473 40.0613 41.5169 40.1329 41.7443C40.2087 41.9675 40.3014 42.1528 40.4109 42.2918C40.5204 42.4308 40.6341 42.5403 40.7479 42.6204C40.8616 42.7004 40.9542 42.7509 41.0343 42.7804L41.0427 42.7846Z" fill="#554395"/>
<path d="M47.731 31.3117C47.8489 31.3117 47.9079 31.3706 47.9079 31.4886V31.6697C47.9079 31.7876 47.8489 31.8466 47.731 31.8466H45.642V40.9356C45.642 41.2557 45.6841 41.5253 45.7641 41.7527C45.8441 41.9802 45.9368 42.1613 46.0421 42.3003C46.1474 42.4392 46.2569 42.5488 46.3706 42.6288C46.4843 42.7088 46.5812 42.7593 46.6612 42.7888C46.7665 42.8267 46.8213 42.9025 46.8213 43.0078C46.8213 43.0752 46.796 43.1342 46.7497 43.1763C46.7033 43.2226 46.6486 43.2479 46.5812 43.2479H42.0451C41.885 43.2479 41.805 43.1679 41.805 43.0078C41.805 42.9025 41.8513 42.8309 41.944 42.7888C42.024 42.7636 42.1209 42.7088 42.2304 42.6288C42.3399 42.5488 42.4536 42.4392 42.5589 42.3003C42.6642 42.1613 42.7569 41.9844 42.8369 41.7738C42.9127 41.5632 42.9548 41.2979 42.9548 40.9778V31.8508H41.3628C41.2406 31.8508 41.1859 31.7918 41.1859 31.6739V31.4928C41.1859 31.3749 41.2448 31.3159 41.3628 31.3159H42.8748C42.6347 30.7978 42.4915 30.2882 42.4368 29.787C42.382 29.2816 42.441 28.8393 42.6137 28.4561C42.7864 28.0728 43.077 27.7569 43.4897 27.5211C43.9025 27.2852 44.4458 27.1631 45.1197 27.1631C45.7936 27.1631 46.3243 27.2852 46.7497 27.5337C47.1751 27.778 47.512 28.056 47.7647 28.3592C47.9753 28.6245 48.0385 28.9194 47.9542 29.2437C47.87 29.568 47.672 29.7954 47.3688 29.9302C47.0908 30.065 46.8129 30.065 46.5349 29.9302C46.2569 29.7996 46.08 29.5806 46 29.2774C45.9452 29.0794 45.8778 28.8773 45.802 28.6793C45.722 28.4813 45.6251 28.3044 45.5156 28.1444C45.4061 27.9844 45.2671 27.8538 45.1155 27.7443C44.9639 27.639 44.7912 27.5842 44.6101 27.5842C44.37 27.5842 44.1889 27.6895 44.0625 27.9043C43.9362 28.1191 43.8941 28.3971 43.9362 28.7383C43.9741 29.0836 44.1047 29.4795 44.3237 29.9302C44.5427 30.3809 44.8712 30.8442 45.3092 31.3243H47.7352L47.731 31.3117Z" fill="#554395"/>
<path d="M54.4573 32.7858C54.3604 33.2238 53.9771 34.698 52.5704 35.8225C51.3068 36.8291 49.9675 36.9555 49.4958 36.9765C50.018 37.0903 51.3279 37.4525 52.4819 38.6234C53.6865 39.8448 54.0066 41.2305 54.1035 41.7485C54.2172 41.2641 54.6721 39.5963 56.281 38.4128C57.435 37.562 58.6101 37.3767 59.1576 37.3261C58.648 37.2335 57.1654 36.9049 55.923 35.5909C54.8953 34.5042 54.571 33.3123 54.4573 32.7816V32.7858Z" fill="#554395"/>
<path d="M3.94077 6.08636L3.40902 6.80445L5.76941 8.55232C5.90534 8.65298 5.98412 8.75821 6.00575 8.86803C6.02591 8.97675 6.00042 9.07913 5.92931 9.17517C5.85709 9.27269 5.76477 9.32786 5.65232 9.34068C5.54097 9.35202 5.41807 9.30791 5.28361 9.20835L2.92323 7.46048L2.39148 8.17857C2.30833 8.29086 2.22213 8.35629 2.13289 8.37485C2.04217 8.39232 1.95618 8.37097 1.87491 8.31079C1.79069 8.24843 1.74499 8.17112 1.73781 8.07886C1.73172 7.98513 1.76861 7.88434 1.84849 7.77648L3.39777 5.68427C3.48202 5.5705 3.5695 5.50488 3.66022 5.48741C3.75203 5.46846 3.83857 5.48908 3.91984 5.54925C4.0011 5.60943 4.04607 5.68619 4.05473 5.77954C4.06191 5.87179 4.02392 5.97407 3.94077 6.08636Z" fill="#554395"/>
<path d="M8.23261 3.16555L8.49396 4.29396L10.2161 3.8951L9.95479 2.76668C9.91745 2.60548 9.92528 2.47628 9.97825 2.37909C10.033 2.28148 10.1195 2.21898 10.2377 2.19161C10.3577 2.16381 10.4638 2.18171 10.5559 2.2453C10.6494 2.30669 10.715 2.41888 10.7527 2.58188L11.4714 5.68502C11.5092 5.84802 11.4998 5.97852 11.4432 6.07655C11.3867 6.17457 11.2993 6.23727 11.1811 6.26465C11.0611 6.29245 10.9559 6.27434 10.8656 6.21033C10.7749 6.14453 10.7108 6.03103 10.6735 5.86983L10.3667 4.54528L8.64454 4.94415L8.95131 6.26869C8.98906 6.43169 8.97965 6.5622 8.92309 6.66022C8.86653 6.75824 8.77915 6.82095 8.66093 6.84833C8.54093 6.87612 8.43577 6.85801 8.34545 6.794C8.25472 6.72821 8.19069 6.6147 8.15336 6.4535L7.43466 3.35036C7.39732 3.18915 7.40425 3.06016 7.45544 2.96338C7.50841 2.86619 7.5958 2.80349 7.7176 2.77528C7.8376 2.74748 7.94366 2.76538 8.03576 2.82898C8.12924 2.89036 8.19486 3.00255 8.23261 3.16555Z" fill="#554395"/>
<path d="M17.4667 4.70957L15.8448 3.83007L15.3716 4.70282L16.8649 5.51265C16.9748 5.57225 17.0429 5.64156 17.069 5.72058C17.0977 5.79887 17.0901 5.87841 17.0463 5.95923C17.0025 6.04004 16.9399 6.09184 16.8585 6.11464C16.778 6.13582 16.682 6.11617 16.5705 6.05569L15.0771 5.24587L14.5289 6.25681L16.2065 7.16655C16.3196 7.2279 16.39 7.30058 16.4177 7.38459C16.4478 7.46786 16.4392 7.55313 16.3919 7.6404C16.3463 7.72445 16.28 7.77736 16.1929 7.79914C16.1083 7.82019 16.0094 7.80003 15.8962 7.73868L13.9398 6.67776C13.7831 6.59275 13.6888 6.49665 13.657 6.38946C13.6268 6.28316 13.6537 6.15243 13.7379 5.99727L15.1866 3.32568C15.2427 3.22224 15.3036 3.14652 15.3694 3.09853C15.436 3.04892 15.5096 3.02709 15.59 3.03306C15.6729 3.03828 15.7653 3.0685 15.8671 3.12372L17.7678 4.15441C17.8825 4.21663 17.9533 4.2885 17.9802 4.37002C18.0096 4.4508 18.002 4.5324 17.9573 4.61483C17.9117 4.69887 17.8466 4.75141 17.762 4.77246C17.6799 4.79276 17.5815 4.7718 17.4667 4.70957Z" fill="#554395"/>
</svg>
